<?xml version="1.0" encoding="utf-8"?>
<!-- Generator: Adobe Illustrator 21.0.0, SVG Export Plug-In . SVG Version: 6.00 Build 0)  -->
<svg version="1.1" id="Layer_4" xmlns="http://www.w3.org/2000/svg" xmlns:xlink="http://www.w3.org/1999/xlink" x="0px" y="0px"
	 viewBox="0 0 1920 1080" style="enable-background:new 0 0 1920 1080;" xml:space="preserve">
<style type="text/css">
	.st0{fill:#1A1A1A;}
	.st1{fill:#29ABE2;}
	.st2{fill:#602BE0;}
	.st3{fill:none;}
	.st4{fill:#2E3192;}
	.st5{fill:#602BE0;stroke:#602BE0;stroke-width:5;stroke-miterlimit:10;}
	.st6{fill:#EAEAEA;}
</style>
<g>
	<g>
		<path class="st0" d="M1036.9,248.2L1036.9,248.2c-12.1-14.5-31.6-21.8-58.9-21.8h-92.9v624h89.7c44.7,0,69.7-18.2,75.2-54.6
			c0,0,0-0.1,0-0.1c0.7-5.1,1.1-10.5,1.1-16.3v-483C1051.2,275.7,1046.4,259.7,1036.9,248.2z M912.4,823.1V256.9h65.6
			c38.4,0,45.9,15.6,45.9,42.7v479.8c0,27-8.2,43.8-49.1,43.8H912.4z"/>
		<path class="st0" d="M1268.1,537.8L1268.1,537.8l-53.7-50.9l-12.8-12.1l-14.1-13.4l-10.9-10.3v231h94.8v170.3H1424v-167
			L1268.1,537.8z M1298.6,825.3V655h-94.8V517.7l11.1,10.5l13.9,13.2l167.9,159v124.9H1298.6z"/>
		<path class="st0" d="M1513.9,99.2L1513.9,99.2c-8.5-2.7-17.6-4.1-26.9-4.1h-265.2c-32.4,0-58,9.2-75.4,26.7
			c-1.6,1.6-3.2,3.3-4.7,5.1c-1.5,1.8-3,3.8-4.4,5.7c-14-10.8-29.7-19.2-46.8-25.4c0,0-0.1,0-0.1,0h-0.1
			c-22.5-8-47.7-12.1-75.3-12.1H720.8c0.1,0,0.3,0,0.4,0.1c33,4.6,36.5,21.3,40.8,28.5c1,1.7,2.5,2.9,4.2,3.7
			c1.1,0.4,2.3,0.7,3.5,0.7l245.1-5.7c49.5,0,88.8,14.1,118,42.4c5.4,5.3,10.3,10.9,14.7,16.9c1.1-7.9,2.9-14.9,5.5-21.2
			c10.5-25.4,33.3-38.1,68.6-38.1H1487c34.2,0,62,27.7,62,62v197.4H1424V224.3h-152.7v154.3l250.3,235.9
			c18.1,17.1,27.2,39.7,27.2,67.8v195.9c0,29.2-8.3,50-24.9,62.4c-12.3,9.3-29.3,13.9-50.8,13.9h-251.4c-18,0-32.8-3.3-44.4-9.8l0,0
			c-6-3.4-11.1-7.7-15.4-12.9c-3.6-4.3-6.5-9.3-8.8-14.8c-1.9-4.5-3.4-9.4-4.5-14.7c-0.4-2-0.8-4.1-1.1-6.3
			c-4.4,5.9-9.4,11.5-14.8,16.7c-4,3.8-8.2,7.4-12.5,10.7c-27.6,20.8-62.7,31.2-105.4,31.2l-226.8-7.1l-8.5-0.3
			c-3.8,0-7.5,1.5-10.2,4.1v0c-0.3,0.3-0.5,0.6-0.8,0.9c-2.6,3.1-6.3,9.6-14,16.2c-7.8,6.6-19.7,13.3-38.8,16.6c-0.1,0-0.1,0-0.2,0
			h299.2c45,0,83.4-10.5,114.4-31.4c0,0,0,0,0.1,0c2.7-1.8,5.4-3.7,7.9-5.7c0.2,0.3,0.5,0.7,0.7,1c2.5,3.5,5.3,6.7,8.3,9.7
			c17.5,17.3,43,26.4,75.3,26.4h251.4c31.8,0,57.1-8.9,74.6-25.6c0,0,0,0,0,0c0,0,0,0,0,0c0,0,0,0,0,0c0,0,0,0,0,0
			c18.5-17.7,28.3-44,28.3-77.8V682.3c0-35.8-12-65.3-35.8-87.6l-241.8-227.9v-112h98.2v157.5h179.4V184.3
			C1576.2,144.4,1550,110.6,1513.9,99.2z"/>
	</g>
	<g>
		<g>
			<g>
				<path class="st1" d="M728.1,703.7L727.4,819l-0.3,58.5c-0.1,9.6-0.3,19.3-3.5,27.9c-1.5,4.3-3.7,8.3-6.8,11.3
					c-3.1,3.1-7,5.4-11.2,6.9c-8.6,3.1-18.2,3.5-27.8,3.4l-29.2-0.2l-58.5-0.4l-117-0.7l-29.3-0.2l-14.6-0.1c-4.9,0-9.8,0-14.4-0.2
					c-9.2-0.5-18.3-2.4-24.7-7.4c-6.3-5-9.5-13.3-10.6-22.4c-0.7-4.5-0.8-9.2-0.9-13.8l0.1-14.6l0.2-29.2l0.4-58.5l1.2-234l1-234
					l0.6-116.7c0.3-9,1.8-17.9,5.5-24c1.9-3.1,4.1-5.4,7.2-7.2c3-1.8,6.8-2.9,10.9-3.8c4.1-0.7,8.5-1.1,13-1.1c4.6-0.1,9.7,0,14.5,0
					l29.2,0.1l117,0.5l58.5,0.3l29.3,0.1l14.5,0.1c4.5,0.1,9,0.3,13,1c2.1,0.3,4,0.9,5.9,1.3c1.8,0.7,3.6,1.2,5.1,2.1
					c3.1,1.6,5.5,3.5,7.5,6.1c1.9,2.6,3.2,6,4.2,9.8c1,3.8,1.4,8.1,1.8,12.4c0.1,2.2,0.1,4.5,0.2,6.7l0,7.3l-0.1,14.6l-0.1,29.3
					l-0.5,105.6l-46.8-0.3l0.9-153.2l0.1-12.7l-12.8,0l-108.1-0.4c-36-0.1-72.1-0.4-108.1-0.2l-13.3,0.1l0,13.2l0.4,168.8
					c0.1,56.3,0.7,112.6,1,168.8l1.5,168.8l2,168.8l0.1,8.6l8.4-0.1l108.1-1.6c36.1-0.5,72.1-1.1,108.1-1.9l5.2-0.1l-0.1-4.9
					l-4.1-174.7C683.5,703.2,705.8,703.6,728.1,703.7z"/>
				<path class="st1" d="M680.3,980c-1,0-2,0-2.9,0L429,978.6c-5.2,0-10.9,0-16.4-0.3l-0.7,0c-22.2-1.2-40-7.3-54.4-18.5l-0.5-0.4
					c-16.5-13.2-26.9-32.7-29.9-56.5c-1.1-7.6-1.3-14.5-1.3-20.3l0-0.5l0.6-102.9l1.2-234l1-234l0.7-118.2c0.6-19.6,5-36.3,13-49.6
					c6.5-10.8,15.1-19.3,25.6-25.5l0.4-0.2c8-4.6,16.9-7.9,27.2-9.9l1.3-0.2c7-1.2,14.3-1.8,21.5-1.9c3.3,0,6.8,0,10.3,0l34.1,0.1
					l220.2,1c5.9,0.1,12.8,0.4,20,1.6c3.9,0.6,6.9,1.3,8.7,1.8l4.2,0.9l4,1.5c2.3,0.8,6.3,2.2,11,4.8c9.9,5.2,18.3,12.3,24.9,21
					l0.9,1.2c5.4,7.6,9.5,16.6,12.2,26.7c2.1,8,2.9,15.4,3.4,22.2l0.1,0.8c0.1,2.2,0.2,4.4,0.2,6.6l0.1,2.5l-0.3,52.1l-0.8,158.6
					l-107.1-0.7c-25.1-0.2-45.4-20.6-45.2-45.8l0.7-120.3l-67.9-0.2c-11.9,0-23.8-0.1-35.8-0.1c-10.7,0-21.5-0.1-32.4-0.1l0.3,129.1
					c0,35.4,0.3,71.4,0.6,106.2c0.2,20.8,0.3,41.6,0.4,62.5l1.5,168.7l1.4,124.2l63.4-0.9c21.5-0.3,41.1-0.6,59.9-1l-3.2-134.2
					c-0.6-25.8,20-35,45.8-34.7c0,0,96,11.3,115,7.6c4.3-6.1,8.6-12.1,12.8-18.2L780,877.9c-0.1,11.4-0.3,28.2-6.7,45.7
					c-4.4,12.1-10.9,22.6-19.3,30.8c-8.3,8.2-18.3,14.6-30,18.9l-0.4,0.2C708.3,979.1,693.2,980,680.3,980z"/>
			</g>
			<path class="st2" d="M732.2,819l-0.7-117v-1.7h-1.7c-23.7,0.1-47.4,0.5-70.8,0.8l-4,171.4c-12.1-0.3-24.1-0.5-36.2-0.7
				c-22.3-0.4-44.7-0.8-67-1.1l-99.5-1.4l1.9-160.4l1.5-168.8c0.3-56.3,0.9-112.5,1-168.8l0.4-155.5c31.6,0.1,63.2-0.2,94.8-0.2
				l95.5-0.4l0.9,152.2v0.1c0,6.5,5.3,11.7,11.8,11.6l69.9-0.4l11.4-0.1l-0.1-11.3l-0.6-117l-0.1-29.3l-0.1-14.6l0-7.3
				c-0.1-2.6-0.1-5.3-0.3-7.9c-0.3-2.7-0.4-5.4-0.9-8.1c-0.2-1.4-0.4-2.7-0.7-4.1l-1-4.2c-1.5-5.6-3.8-11.4-7.7-16.7
				c-3.9-5.3-9.4-9.5-15-12.2c-2.8-1.5-5.7-2.3-8.5-3.3c-2.8-0.6-5.6-1.4-8.4-1.8c-5.5-0.9-10.9-1.1-16.1-1.2l-14.7,0l-29.3,0.1
				l-58.5,0.3l-117,0.5l-29.2,0.1c-4.9,0-9.6,0-14.8,0.1c-5.2,0.1-10.6,0.5-16.1,1.5c-5.5,1.2-11.2,2.9-16.5,6.1
				c-5.4,3.2-10.1,8-13.1,13.4c-3.1,5.3-5,11-6,16.4c-0.6,2.7-0.8,5.4-1.2,8.1c-0.1,2.6-0.5,5.3-0.5,7.9c-0.1,5.3,0,10,0,14.9
				l0.1,14.6l0.1,29.2l0.3,58.5l1,234l1.2,234l0.4,58.5l0.2,29.2l0.1,14.6c0.1,5.1,0.3,10.2,1.1,15.3c0.7,5.1,2,10.4,4.4,15.4
				c2.3,5,5.8,9.8,10.3,13.4c4.6,3.5,9.8,5.6,15,7c5.2,1.4,10.4,1.8,15.5,2.2c5.2,0.1,10,0.1,14.9,0.1l14.6-0.1l29.3-0.2l117-0.7
				L619,934l29.6-0.2l29.2-0.2c9.8-0.1,20.1-0.4,29.9-4.1c4.9-1.8,9.6-4.6,13.3-8.5c3.8-3.8,6.3-8.8,8-13.6
				c3.4-9.8,3.5-20.1,3.4-29.8L732.2,819z M727.4,819l-0.3,58.5c-0.1,9.6-0.3,19.3-3.5,27.9c-1.5,4.3-3.7,8.3-6.8,11.3
				c-3.1,3.1-7,5.4-11.2,6.9c-8.6,3.1-18.2,3.5-27.8,3.4l-29.2-0.2l-29.8-0.2l-28.7-0.2l-117-0.7l-29.3-0.2l-14.6-0.1
				c-4.9,0-9.8,0-14.4-0.2c-9.2-0.5-18.3-2.4-24.7-7.4c-6.3-5-9.5-13.3-10.6-22.4c-0.7-4.5-0.8-9.2-0.9-13.8l0.1-14.6l0.2-29.2
				l0.4-58.5l1.2-234l1-234l0.6-116.7c0.3-9,1.8-17.9,5.5-24c1.9-3.1,4.1-5.4,7.2-7.2c3-1.8,6.8-2.9,10.9-3.8
				c4.1-0.7,8.5-1.1,13-1.1c4.6-0.1,9.7,0,14.5,0l29.2,0.1l117,0.5l58.5,0.3l29.3,0.1l14.5,0.1c4.5,0.1,9,0.3,13,1
				c2.1,0.3,4,0.9,5.9,1.3c1.8,0.7,3.6,1.2,5.1,2.1c3.1,1.6,5.5,3.5,7.5,6.1c1.9,2.6,3.2,6,4.2,9.8c1,3.8,1.4,8.1,1.8,12.4
				c0.1,2.2,0.1,4.5,0.2,6.7l0,7.3l-0.1,14.6l-0.1,29.3L718.6,351c0,0,0,0,0,0.1c-0.1,2.6-2.2,4.8-4.9,4.8c0,0,0,0-0.1,0l-37-0.2h0
				c-2.7-0.1-4.8-2.2-4.8-4.9c0,0,0,0,0-0.1l0.9-148.3v-1.5c0-6.2-5-11.2-11.2-11.2c0,0,0,0-0.1,0h-1.5l-108.1-0.4
				c-36-0.1-72.1-0.4-108.1-0.2l-3.1,0c-5.6,0-10.2,4.6-10.2,10.2c0,0,0,0,0,0.1v3l0.4,168.8c0.1,56.3,0.7,112.6,1,168.8l1.5,168.8
				l2,168.8l0,3.7v0.1c0.1,2.6,2.2,4.7,4.8,4.8h0.2l3.5-0.1l108.1-1.6c22.3-0.4,44.7-0.7,67-1.1c13.7-0.3,27.4-0.5,41.1-0.8h0.3
				c2.7-0.1,4.8-2.2,4.8-4.9v-0.1l-4.1-174.7c22.6,0.3,45,0.6,67.3,0.8L727.4,819z"/>
		</g>
		<g>
			<g>
				<g>
					<path class="st3" d="M784.3,489.8v95.5c0,1.5,0,3.1-0.1,4.6c0,1.2,0,2.4-0.1,3.6c0,0.9-0.1,1.7-0.1,2.6
						c-0.1,1.9-0.2,3.8-0.4,5.7c0,0.2,0,0.4,0,0.5c0,0.3,0,0.7-0.1,1c-0.1,0.4-0.2,0.7-0.3,1c-7.1-8.4-17.6-13.7-29.4-13.7h-96.6
						c-21.2,0-38.5,17.3-38.5,38.5v28.4c1.3,0,2.5,0.1,3.8,0.1c0.3-0.1,0.5-0.1,0.8-0.1l1.8,0.1l1.8,0.1c-3,0.4-4.7,0.6-4.7,0.6
						c-1.3,0.1-2.4,0.4-3.5,0.7c-1.1,0.4-2.1,0.8-3,1.4c0,0-0.1,0-0.1,0c-2.9,1.8-4.8,4.3-5.9,6.2c-2,3.4-3.2,7.1-3.7,11.1
						c-0.1,1-0.2,2-0.2,3l-0.5,20l-3.2,116.6h-97.5l-1.9-554.1h97.5l1.9,143.6c0,6.4,2.2,12.4,6,17.4c1.5,1.9,3.6,3.4,6,4.2
						c26.4,8.3,141.8,7.2,141.8,7.2c2.1,0.1,6.5,0.4,9.5,1.1c7.5,9.8,14.1,25.2,18.3,44.4c0.1,0.6,0.1,1.3,0.2,1.9
						c0,0.6,0.1,1.2,0.1,1.8c0.1,1.2,0.1,2.2,0.2,3.2C784.3,488.8,784.3,489.5,784.3,489.8z"/>
					<path class="st0" d="M597.7,674c-0.9,3.5-1.5,26.7-1.5,26.7L593,817.3h9.3l3.2-116.6V685c0-2.5,0.3-4.9,0.7-7.3
						c0.4-4,1.7-7.7,3.7-11.1c1.1-1.9,2.9-4.4,5.9-6.2c0,0,0,0,0.1,0c0.9-0.7,1.9-1.3,3-1.7l8.9-3.3
						C616.6,655.4,603.5,651.6,597.7,674z M600.3,423.7c1.7,1.8,11.5,4,13.9,4.7c-2.4-0.8-4.6-2.3-6-4.2c-3.8-4.9-6-10.9-6-17.4
						l-1.9-143.6H591l1.9,143.6C593.4,417.8,595.6,421.1,600.3,423.7z M833.1,386.5h-30.8c-6.5,0-12.6,1.6-18,4.5V260.9
						c0-18.8-4.2-34.9-12.1-47.9c-1.7-2.8-3.6-5.4-5.6-7.8c-1.9-2.3-3.9-4.5-6.1-6.5c-1.1-1-2.2-2-3.4-2.9c0,1.1,0,2.2,0,3.4v40.3
						c1.6,6.4,2.5,13.6,2.5,21.5l-2.5,62.9v67.5h-2.7l-0.7,17.7l0,0.6l-112.3,3c-8,0-14.4-5.8-14.4-13l-0.1-10.9l-1.8-150.4H478
						L480,837H627l-6.1-163c0-2.1,0.6-4,1.7-5.7v0c2.2-3.5,6.4-5.9,11.3-5.9l7.3,0.2h0l23,0.6h0l95.2,2.4v151.4
						c0,7.9-0.8,15-2.5,21.3v39.9c0,2.1,0,4.2-0.1,6.3c1.2-1,2.4-2,3.5-3c3.2-3,6.1-6.2,8.7-9.7c4.8-6.5,8.5-14,11-22.3v-0.1
						c2.8-8.9,4.2-18.8,4.2-29.7V726c2.5,1.3,5.2,2.4,8,3.1c3.2,0.9,6.5,1.3,9.9,1.3h30.8c21.2,0,38.5-17.3,38.5-38.5V425
						C871.6,403.8,854.3,386.5,833.1,386.5z M688.7,653c-57.7-0.7-74.2,2.4-75.7,3.7c-6.2,5.2-10.5,2.1-15.3,17.4
						c-1.1,3.4-1.5,26.7-1.5,26.7L593,817.3H491.5l-1.9-554.1H591l1.9,143.6c0.4,11,2.7,14.2,7.3,16.8c1.7,1.8,11.5,4,13.9,4.7
						c26.4,8.3,141.8,7.2,141.8,7.2c2.1,0.1,6.5,0.4,9.5,1.1c7.5,9.8,14.1,25.2,18.3,44.4c0.1,0.6,0.1,1.3,0.2,1.9
						c0,0.6,0.1,1.2,0.1,1.8c0.1,1.2,0.1,2.2,0.2,3.2c0,0.8,0,1.4,0,1.8v95.5c0,1.5,0,3.1-0.1,4.6c0,1.2,0,2.4-0.1,3.6
						c0,0.9-0.1,1.7-0.1,2.6c-0.1,1.9-0.2,3.8-0.4,5.7c0,0.2,0,0.4,0,0.5c0,0.3,0,0.7-0.1,1c-0.1,0.4-0.2,0.7-0.2,1.1
						c-0.1,0.5-0.2,0.9-0.4,1.4c0,0,0,0,0,0.1c-4.9,21.2-12.7,41.7-30.1,47.7C739.8,658.1,693.6,653.1,688.7,653z"/>
				</g>
				<path class="st1" d="M1476.3,354.9v2.8h2.8l0-2.7C1478.2,355,1477.2,355,1476.3,354.9z M1533.6,676.6
					c-0.6-9.6-3.1-18.2-7.8-25.3c-1.3-1.8-2.5-3.5-4-5.1c-0.7-0.8-1.5-1.6-2.2-2.4l-3-2.9l-12.1-11.6l-48.5-46.3l-97-92.5
					l-96.8-92.8l-3.3-3.2l0.1-4.4l2-190.1l0.1-8.5l8.3,0.1l103.6,1.3l103.6,1.5l5.6,0.1l-0.1,5.4l-2.7,154.7
					c21.8,0.4,44,1.3,66.7,1.8l-1.2-156l-0.1-9.7c0-3.2,0.1-6.6-0.2-9.6c-0.6-6.1-2.8-12-6.6-16.8c-1.9-2.4-4-4.6-6.5-6.4
					c-2.4-1.8-5.2-3.3-8-4.3c-2.8-1.1-5.9-1.7-8.9-1.9c-2.9-0.2-6.4,0-9.6-0.1l-78.3,0.4l-156.8,0.8l-19.6,0.1
					c-6.5,0-12.8,0.2-18.8,1.4c-6,1.1-11.8,3.1-16.2,6.6c-4.5,3.4-7.4,8.5-9.2,14.1c-0.8,2.9-1.5,5.8-1.9,8.9l-1.3,9.6l-2.5,19.4
					l-5.1,38.9l-1.4,11.1l-6.7-9l-31.4-42.1l-7.9-10.5c-2.5-3.5-5.2-6.6-8-9.7c-5.7-6.1-12.1-11.6-19.1-16.2
					c-13.9-9.3-30-15.2-46.6-18.1c-8.3-1.5-16.8-2.4-25.3-2.6c-8.4-0.2-17.3-0.1-26,0l-203.4,1l0.9,230.3l1.3,344l0.7,190.2
					l199.9-0.8c8.7-0.1,17.7,0,25.8-0.3c8.3-0.3,16.5-1.2,24.5-2.7c16.1-2.9,31.3-8.5,44.4-17.2c6.5-4.3,12.7-9.6,18-15.2
					c2.7-2.9,5-5.8,7.5-9.1l7.8-10.5l31.1-42.2l16.6-22.5l4,27.8l9.6,66.3c0.7,4.8,1.9,9.1,3.6,12.3c1.6,3.3,3.8,5.3,6.8,7.1
					c3,1.8,7.1,3,11.6,3.7c4.6,0.8,9.4,0.9,14.7,0.9l134.1-0.6l67-0.2l33.5-0.1l16.6-0.1c5,0,9.8-0.5,14.2-1.3
					c4.3-0.9,7.9-2.3,10.4-4.1c2.6-1.8,4.4-4,5.8-7.4c1.4-3.3,2.4-7.6,3-12.3c0.2-2.4,0.5-4.7,0.4-7.3l0.1-3.8l0-4.2l0.1-67l0.1-67
					l0.1-33.5l0-16.7l0-8.4l0-3.9C1533.7,679,1533.6,677.8,1533.6,676.6z M1116.6,305.1l-0.4,47.4l-0.7,47.4
					c-1.2,63.2-3.7,126.5-6.1,189.7c-2.4,63.2-4.1,126.4-4.6,189.7c-0.2,11.7-1.5,23.5-4.8,34.8c-3.2,11.3-8.6,22.1-16.1,31.2
					c-7.4,9.2-17,16.5-27.5,21.8c-10.6,5.2-22,8.6-33.6,10.5c-11.6,1.8-23.5,1.8-35.1,2.1l-34.9,0.6l-69.8,1.4l-3.9,0.1l-0.1-4.1
					c-1.2-56.3-2.1-112.6-2.6-168.8L874.8,540l-3.2-337.6l-0.1-11.1l11.4-0.2l94.9-1.2l23.7-0.3c4,0,8.5,0.2,12.7,0.3
					c4.3,0.2,8.6,0.8,12.9,1.2c17.2,2.3,34.7,8.3,49.7,19.1c15.1,10.7,26.3,26.7,32.5,43.6c2.9,8.5,5.1,17.2,6.1,25.9l0.7,6.5
					c0.3,2.2,0.2,4.3,0.3,6.5l0.2,6.4L1116.6,305.1z M1476.3,884.1c-69.1,0.9-138.1,2.1-207.2,2.7l-7,0.1l-0.1-7.1l-1.8-161.2
					l-85.9,0.9l-9.8,0.1l-0.1-10l-2.1-159.2c-0.9-53.1-1.5-106.1-1.3-159.2l0.1-30.9l22.3,21.3c25.4,24.2,50.6,48.6,75.6,73.2
					c25.1,24.5,49.8,49.1,74.4,73.7c24.5,24.7,49,49.3,73,74c24,24.7,47.9,49.3,71,74.1l3.1,203.3l0.1,4.3L1476.3,884.1z"/>
				<path class="st1" d="M1586.4,674.2l0-1c-1.3-19.3-6.8-36.5-16.5-51.2l-1-1.4c-1.4-2-4-5.6-7.4-9.4c-1.5-1.8-2.9-3.1-3.8-4.1
					l-162.1-154.7l-83.5-80.1l1.2-117.6l0.1-9.4l110.8,1.5l4,0.1l-0.9,53.3l-3.1-0.1l-0.6,0v110.5h108l0-1.3
					c4.4,0.1,8.7,0.2,13.1,0.3l31.7,0.8l22.9,0.5l-1.6-210.5l-0.1-11.9c0-3.2,0-7.1-0.4-11.6l0-0.5c-1.6-16.3-7.6-31.5-17.4-44.1
					c-4.9-6.4-10.7-12.1-17.1-16.7c-6.4-4.7-13.4-8.5-20.8-11.2c-7.1-2.7-14.6-4.4-22.9-5.1l-1-0.1c-1.4-0.1-2.7-0.2-4-0.2h0
					c-2.3-0.1-4.4-0.1-6.2,0h-2.8l-255.1,1.3c-8.1,0-17.7,0.3-28.3,2.3c-15.2,2.8-28.2,8.5-38.9,17c-7.7,5.9-14.2,13.5-19.3,22.2
					c-4.3-3.6-8.7-6.8-13.2-9.8c-2.8-1.8-5.5-3.6-8.4-5.2c-15.5-9.1-32.7-15.6-51.2-19.7c0,0-0.1,0-0.1,0h-0.1
					c-2.3-0.4-4.6-0.9-6.9-1.3c-10.8-2-22-3.1-33.3-3.4c-7.2-0.2-14.3-0.2-21.2-0.1l-262.7,1.3v3.4l0.1,20.4l0,5.9l0.1,26.1v0
					l0.2,45.9l0.6,156.9c1.5,1,2.9,2.1,4.2,3.3c7.2,6.4,12,15.5,12.8,25.6c0.1,1,0.2,2,0.2,3v236.3c0,12.8-6.3,24.2-16,31.2l0,7.9
					l0.2,40.9l0.6,161.2l0.2,61.4l0,9.2l0,9v0l0.1,13.8v2l0,6.8l253-1.1l6.9,0c6.7,0,13.7,0,20.6-0.3c11-0.4,21.8-1.6,32-3.5
					c17.1-3.1,33.1-8.3,47.4-15.5c0,0,0,0,0.1,0c3-1.5,5.9-3,8.7-4.7c2.7-1.5,5.4-3.2,8-4.9c5.5-3.6,10.8-7.7,15.9-12.1
					c1.5-1.3,3-2.7,4.5-4.1c0.4,1,0.9,1.9,1.4,2.9c2.6,5.1,5.8,9.8,9.5,14.1l0,0c4.9,5.7,10.9,10.6,17.7,14.6
					c8.5,5,18.5,8.4,29.7,10.2c8.7,1.5,16.6,1.6,23.5,1.6c0,0,0,0,0.1,0l251.3-1c7.9-0.1,15.8-0.8,23.4-2.2l0.8-0.2
					c8.7-1.8,16.6-4.6,23.8-8.5c0,0,0,0,0,0c0,0,0,0,0,0c0,0,0,0,0,0c0,0,0,0,0,0c2.4-1.3,4.8-2.9,7-4.5
					c10.3-7.4,18.2-17.2,23.5-29.3c3.3-7.6,5.6-16.3,6.9-26.4l0.4-4.4c0.2-2.1,0.5-5.3,0.5-9.2l0.5-201.1l0-4.4
					C1586.6,678,1586.5,676.1,1586.4,674.2z M1312.6,665l-14,0.2l-66.7,0.7l-0.1-0.9l-0.6,0.9l-14.4,0.2l-0.1-11.1l-1.4-105.6
					c-0.1-7-0.2-14.1-0.4-21.2c-0.2-13.5-0.4-27.3-0.5-41.3c0-0.7,0-1.4,0-2.1c2.6,2.5,5.2,5,7.8,7.6c15.4,15,30.7,30.2,45.9,45.3
					l0,0c7.1,7,14,14,21,20.9l6.9,6.9c25.9,26.1,49.3,49.6,72.6,73.6c18,18.4,36.9,37.9,55.5,57.6c0.3,0.3,0.6,0.6,0.9,0.9
					l2.1,134.1c-1,0-2,0-2.9,0c-7,0.1-14,0.2-21.1,0.3c-29.1,0.4-58.8,0.8-88.5,1.2l-0.1-8.1L1312.6,665z M1049.1,799.4l-0.1,0.3
					c-1.3,4.7-3.4,8.9-6.3,12.3c-2.4,3-5.9,5.7-9.7,7.6c-5.4,2.6-11.7,4.6-18.5,5.7c-6.7,1.1-15.1,1.2-23.9,1.3l-59.8,1.1
					c0-1.5-0.1-3.1-0.1-4.6c-0.7-38.2-1.2-76.6-1.6-114.8l-1.5-168.9l-2.7-282.6l-0.1-13.4l76.8-0.9c2.1,0,4.3,0.1,6.6,0.2
					c1.2,0,2.4,0.1,3.6,0.1c1.4,0.1,3.4,0.3,5.4,0.5c1.1,0.1,2.2,0.3,3.3,0.4c4.6,0.7,10.4,2,16.2,4.5h0c3,1.3,6.1,2.9,9,5l0.3,0.2
					c5.4,3.8,10.3,10.6,13.2,18.1c1.9,5.6,3,10.2,3.4,14.1l0.6,5.8l0,0.6c0,0.8,0,1.6,0.1,2.4l0.2,5.2l-0.4,52.2l-0.7,47
					c-1.1,59.7-3.5,120.6-5.7,179.5l-0.4,9.2c-2.6,68.2-4.2,130.7-4.7,191c-0.1,6.3-0.7,12-1.8,16.9c0,0,0,0.1,0,0.1
					C1049.7,797,1049.5,798.2,1049.1,799.4z"/>
			</g>
			<g>
				<path class="st4" d="M1476.3,354.9v2.8h2.8L1476.3,354.9z"/>
				<path class="st5" d="M1559.9,809.8l-0.1-67l-0.1-33.5l0-16.7l0-8.4l-0.1-4.5c0-1.6-0.1-3.2-0.2-4.8
					c-0.8-12.7-4.5-26.3-12.2-37.8c-1.9-2.9-4-5.6-6.3-8.1c-1.1-1.3-2.4-2.4-3.6-3.7l-3.1-2.9l-12.2-11.4l-49.1-45.7l-98.1-91.4
					l-95.2-88.2l-1.7-161.4l-0.2-15.8l95.1-1.2l98.2-1.4l2.6,151.9l0.1,2.8l2.7,0c24.2-0.4,48-1.3,71.3-1.9l1.2-157.5l0.1-9.9
					c0-3.3,0.1-6.5-0.1-10c-0.6-6.9-3.1-13.7-7.3-19.2c-2.1-2.8-4.6-5.3-7.4-7.4c-2.8-2.1-5.8-3.8-9.1-5c-3.2-1.3-6.7-2-10.2-2.3
					c-3.6-0.3-6.7-0.1-10-0.2l-78.3-0.4l-156.8-0.8l-19.6-0.1c-6.5-0.1-13.4,0-20.2,1.3c-6.8,1.2-13.8,3.4-19.7,8
					c-6.1,4.5-10,11.3-12.1,18c-1,3.4-1.8,6.8-2.3,10.2l-1.4,9.7l-2.8,19.4l-3.9,27.7l-24.4-33.4l-7.8-10.6
					c-2.6-3.6-5.5-7.2-8.6-10.6c-6.2-6.7-13.1-12.8-20.6-17.9c-15.1-10.4-32.6-16.9-50.4-20.2c-8.9-1.7-17.9-2.7-26.8-3
					c-9.1-0.4-17.7-0.3-26.5-0.4l-210.1-1l-6.6,0v6.7L805,386.5l-1.3,344l-0.8,199.9l-0.1,9.6l9.7,0l209.6,0.9
					c8.8,0,17.3,0.2,26.6,0c9.1-0.3,18.3-1.2,27.5-2.8c15.1-2.6,30.2-7.4,44-14.9c2.9-1.6,5.9-3.3,8.7-5.2c7.1-4.6,13.7-10,19.7-16
					c0.8-0.8,1.6-1.6,2.4-2.4c3.3-3.5,6.5-7.3,9.2-11l7.9-10.5l14.6-19.4l5.2,38.8c0.9,6.2,2.3,13,5.7,19.7
					c3.2,6.8,9.2,13.1,15.8,17c6.6,3.9,13.5,5.8,19.9,6.9c6.4,1.2,12.8,1.3,18.7,1.4l134.1,0.6l67,0.2l33.5,0.1h16.9
					c6.1,0,12.5-0.5,19.1-1.7c1.7-0.4,3.4-0.7,5.2-1.3c5.1-1.4,10.4-3.7,15.3-7.1c6.6-4.5,12-11.4,14.9-18.3
					c6-13.8,5.8-27.1,5.8-38.3L1559.9,809.8z M1513.6,915.9c-4.4,0.8-9.1,1.3-14.2,1.3l-16.6,0.1l-33.5,0.1l-67,0.2l-134.1,0.6
					c-5.3,0-10.2-0.1-14.7-0.9c-4.6-0.7-8.6-1.9-11.6-3.7c-3-1.8-5.2-3.8-6.8-7.1c-1.7-3.2-2.8-7.5-3.6-12.3l-9.6-66.3l-4-27.8
					l-16.6,22.5l-31.1,42.2l-7.8,10.5c-2.4,3.3-4.8,6.3-7.5,9.1c-5.4,5.6-11.5,10.9-18,15.2c-13.1,8.8-28.3,14.3-44.4,17.2
					c-8,1.5-16.2,2.3-24.5,2.7c-8.1,0.3-17.1,0.2-25.8,0.3l-199.9,0.8l-0.7-190.2l-1.3-344l-0.9-230.3l203.4-1c8.7,0,17.6-0.2,26,0
					c8.5,0.3,17,1.1,25.3,2.6c16.6,2.9,32.7,8.8,46.6,18.1c6.9,4.6,13.4,10.1,19.1,16.2c2.9,3.1,5.5,6.3,8,9.7l7.9,10.5l31.4,42.1
					l6.7,9l1.4-11.1l5.1-38.9l2.5-19.4l1.3-9.6c0.4-3.1,1.1-6.1,1.9-8.9c1.8-5.7,4.6-10.7,9.2-14.1c4.4-3.5,10.1-5.5,16.2-6.6
					c6.1-1.2,12.3-1.3,18.8-1.4l19.6-0.1l156.8-0.8l78.3-0.4c3.2,0,6.7-0.1,9.6,0.1c3,0.3,6.1,0.8,8.9,1.9c2.9,1,5.6,2.5,8,4.3
					c2.5,1.8,4.6,3.9,6.5,6.4c3.8,4.8,6,10.7,6.6,16.8c0.3,3,0.2,6.3,0.2,9.6l0.1,9.7l1.2,156c-22.7-0.5-44.8-1.4-66.7-1.8l0,2.7
					h-2.8v-2.8c0.9,0,1.9,0,2.8,0.1l2.7-154.7l0.1-5.4l-5.6-0.1l-103.6-1.5l-103.6-1.3l-8.3-0.1l-0.1,8.5l-2,190.1l-0.1,4.4l3.3,3.2
					l96.8,92.8l97,92.5l48.5,46.3l12.1,11.6l3,2.9c0.7,0.8,1.6,1.5,2.2,2.4c1.5,1.6,2.8,3.3,4,5.1c4.7,7.1,7.2,15.8,7.8,25.3
					c0.1,1.2,0.2,2.4,0.2,3.6l0,3.9l0,8.4l0,16.7l-0.1,33.5l-0.1,67l-0.1,67l0,4.2l-0.1,3.8c0,2.5-0.3,4.9-0.4,7.3
					c-0.6,4.6-1.5,8.9-3,12.3c-1.5,3.4-3.3,5.6-5.8,7.4C1521.5,913.6,1517.9,915,1513.6,915.9z"/>
				<path class="st2" d="M1116.5,292.7c-0.1-2.2-0.1-4.3-0.3-6.5l-0.7-6.5c-1-8.7-3.2-17.3-6.1-25.9c-6.2-16.9-17.4-32.9-32.5-43.6
					c-15-10.8-32.5-16.8-49.7-19.1c-4.3-0.4-8.6-1-12.9-1.2c-4.2-0.1-8.7-0.3-12.7-0.3l-23.7,0.3l-94.9,1.2l-11.4,0.2l0.1,11.1
					l3.2,337.6l1.5,168.8c0.5,56.3,1.4,112.6,2.6,168.8l0.1,4.1l3.9-0.1l69.8-1.4l34.9-0.6c11.6-0.2,23.4-0.2,35.1-2.1
					c11.6-1.9,23-5.3,33.6-10.5c10.5-5.2,20.1-12.6,27.5-21.8c7.5-9.1,12.9-19.9,16.1-31.2c3.3-11.3,4.6-23,4.8-34.8
					c0.5-63.2,2.2-126.5,4.6-189.7c2.4-63.2,4.9-126.5,6.1-189.7l0.7-47.4l0.4-47.4l0-6L1116.5,292.7z M1097.7,813.5
					c-3.1,11.1-8.1,21.7-15.5,30.5c-7.3,8.8-16.6,15.9-27,20.9c-10.3,5.1-21.6,8-32.9,9.6l-8.6,0.8c-2.9,0.4-5.8,0.2-8.6,0.4
					c-5.7,0.3-11.6,0-17.4-0.1l-34.9-0.6l-65.7-1.3c0.2-7.8,0.3-15.5,0.4-23.3c0.9-47.2,1.6-94.4,2.1-141.6l1.5-168.8l2.9-313.6
					l0.1-12.6l83.7,1l23.7,0.3c3.9,0.1,7.3,0.3,11,0.4c3.6,0.2,7.1,0.8,10.7,1.2c14.1,2.2,27.2,7.2,37.9,14.9
					c1.4,0.9,2.6,2.1,3.8,3.1c1.2,1.1,2.6,2.1,3.6,3.3c2.1,2.5,4.6,4.7,6.3,7.5c4,5.2,6.8,11.3,9.4,17.5c2.1,6.5,3.9,13.1,4.7,20.2
					l0.6,5.3c0.2,1.8,0.2,3.6,0.3,5.4l0.3,5.4l0.1,5.9l0.4,47.4l0.7,47.4c1.2,63.2,3.7,126.5,6.1,189.7
					c2.4,63.2,4.1,126.4,4.6,189.7C1102.1,790.9,1100.8,802.5,1097.7,813.5z"/>
				<path class="st4" d="M1472,879.8h4.3v-4.3L1472,879.8z"/>
				<path class="st2" d="M1480.6,879.8l-3.1-203.3c-23.1-24.7-47-49.4-71-74.1c-24-24.7-48.4-49.3-73-74
					c-24.7-24.6-49.4-49.2-74.4-73.7c-25-24.5-50.1-49-75.6-73.2l-22.3-21.3l-0.1,30.9c-0.2,53.1,0.4,106.1,1.3,159.2l2.1,159.2
					l0.1,10l9.8-0.1l85.9-0.9l1.8,161.2l0.1,7.1l7-0.1c69.1-0.7,138.1-1.8,207.2-2.7l4.4-0.1L1480.6,879.8z M1476.3,879.8h-4.3
					l0.1-4.4c-65.3-0.9-130.5-1.9-195.8-2.6l0.2-20.3l1.6-143l0.1-8.8l-6.8-0.1l-2.2,0l-84.7-0.9l0.2-17.4l1.7-131.9
					c0.5-29.6,0.9-59.2,1.1-88.8c0.1-13.2,0.2-26.5,0.2-39.8c17.5,16.3,35.2,32.6,53,48.8c25.3,23.2,50.9,46.2,76.5,69.2
					c25.8,23,51.7,46,78,68.9c26.3,23,52.8,45.9,79.9,68.8l-3.1,197.9c1.4,0,2.9,0,4.3,0.1V879.8z"/>
			</g>
		</g>
	</g>
	<g>
		<path class="st6" d="M1003.1,226.4h-92.9v624h89.7c50.9,0,76.3-23.7,76.3-71v-483C1076.2,249.7,1051.8,226.4,1003.1,226.4z
			 M937.4,256.9h65.6c38.4,0,45.9,15.6,45.9,42.7v479.8c0,27-8.2,43.8-49.1,43.8h-62.4V256.9z"/>
		<path class="st6" d="M1201.6,451.2v223.7c0,4,3.3,7.3,7.3,7.3h74.9c6.9,0,12.5,5.6,12.5,12.5v157.8H1449v-167L1201.6,451.2z
			 M1421.8,825.3h-98.2V681.7c0-14.2-11.1-25.8-25-26.7c-0.6,0-1.2-0.1-1.7-0.1h-68V517.7l192.9,182.6V825.3z"/>
		<path class="st6" d="M1601.2,412.2V184.3c0-49.3-39.9-89.2-89.2-89.2h-265.2c-38.6,0-67.4,13-84.5,37.5
			c-5.1-3.9-10.4-7.5-15.9-10.8c-29.6-17.7-65.2-26.7-106.4-26.7H717.7c1.1,0,2.3,0,3.5,0.1c15,0.4,34.4,3.4,45,11.8
			c3.7,2.9,6.3,6.5,7.3,10.8c0.6,2.6,2.9,4.6,5.6,4.6h260.8c46.8,0,84.6,12.7,113.2,38.1c1.6,1.4,3.2,2.9,4.7,4.4
			c5.4,5.3,10.3,10.9,14.7,16.9c5.4-39.5,30.1-59.3,74.1-59.3H1512c34.2,0,62,27.7,62,62v197.4H1449V224.3h-152.7v127.9
			c0,16.8,7,32.9,19.2,44.5l231.1,217.8c18.1,17.1,27.2,39.7,27.2,67.8v195.9c0,50.9-25.3,76.3-75.8,76.3h-251.4
			c-44,0-68.7-19.5-74.1-58.6c-4.4,5.9-9.4,11.5-14.8,16.7c-1.5,1.5-3.1,2.9-4.7,4.3c-28.7,25.1-66.4,37.6-113.3,37.6H786.7
			c-1.2,0-2.6,0.3-3.9,0.7c-2.3,0.8-4.7,2.1-6.2,3.5c-1.6,1.6-3,3.3-4.4,5c-0.9,1.1-1.8,2.2-2.7,3.3c-7.4,8.9-16.9,17.2-53.6,17.9
			c-1.4,0-2.8,0-4.3,0h328.3c41.3,0,76.9-8.8,106.5-26.4c5.5-3.3,10.8-6.9,15.9-10.7c17.1,24.3,45.9,37.2,84.4,37.2h251.4
			c65.5,0,103-37.7,103-103.6V682.3c0-35.8-12-65.3-35.8-87.6l-228.7-215.6c-8.3-7.8-13-18.8-13-30.2v-94.1h98.2v157.5H1601.2z"/>
	</g>
	<path class="st6" d="M766.3,133.2c-0.7-1-1.4-2-2.1-2.9c0,0,0-0.1,0-0.1c-1.9-2.5-3.9-4.8-6.1-7c-17.6-18.4-43.9-28.2-77.3-28.2
		H420.2c-64.5,0-101.4,37.9-101.4,104.1v682.1c0,65.8,37,103.6,101.4,103.6h260.5c25.6,0,46.9-5.7,63.4-16.6
		c5.1-3.3,9.7-7.1,13.9-11.4c2.2-2.3,4.3-4.7,6.2-7.2l0.1-0.1c1.8-2.3,3.5-4.8,5-7.3c9.8-16.1,14.9-36.6,14.9-60.9v-296
		c0,1.5,0,3.1-0.1,4.6c0,1.2,0,2.4-0.1,3.6c0,0.9-0.1,1.7-0.1,2.6c-0.1,1.9-0.2,3.8-0.4,5.7c0,0.2,0,0.4,0,0.5c0,0.3,0,0.7-0.1,1
		c0,0.4-0.1,0.8-0.1,1.2c-0.2,2.4-0.5,4.8-0.8,7.1c-2.6,18-8.3,33.1-18.8,40.6c-0.9,0.7-1.8,1.3-2.8,1.8c-1.9,1-4.9,1.9-8.8,2.6
		c-7.6,1.4-18.4,2.1-30.5,2.6c0,0,0,0,0,0c-40.1,1.3-99.2-4.1-105.9,1.3c0,0-0.1,0-0.1,0c-3,2.2-4.9,5.1-6.1,7.3
		c-1.6,3.1-2.8,6.4-3.5,10c-0.5,2.3-0.7,4.8-0.7,7.3v138.2H498.2V256.9h107.2v127.5c0,7.9,2.4,15.2,6.6,21.2
		c1.6,2.3,3.9,4.2,6.6,5.1c1.9,0.6,4.1,1.2,6.6,1.7c1.6,0.3,3.4,0.6,5.2,0.9c0.7,0.1,1.5,0.2,2.2,0.3c39.7,5.2,122.7-0.5,132.4,5.6
		c17.9,11.3,19.1,57.8,19.2,68.8c0,0.8,0,1.4,0,1.8V199.2C784.3,172.3,778.1,150.1,766.3,133.2z M648.5,391.3c-0.2,0-0.5,0-0.7,0
		c-8.4-0.4-15.1-7.3-15.1-15.8V226.4H471v620.8h161.7V689c0-7.9,6.4-14.2,14.2-14.2h110.1v203.3c0,2.1,0,4.2-0.1,6.3
		c-0.8,18.6-5.4,33.6-13.6,44.8c-12.4,16.9-33.3,25.3-62.6,25.3H420.2c-49.5,0-74.2-25.4-74.2-76.3V199.2
		c0-51.2,24.7-76.8,74.2-76.8h260.5c29.3,0,50.1,8.5,62.6,25.5c8.7,11.9,13.3,27.9,13.7,48c0,1.1,0,2.2,0,3.4v192.1H648.5z"/>
</g>
<g>
	<g>
		<path class="st1" d="M1546.6,357.4V184c0-19.2-15.5-34.7-34.7-34.7h-265.2c-35.1,0-44.2,14.3-47.1,35.7l-9,66.5l-39.9-54
			c-3.6-4.8-7.5-9.3-11.8-13.5c-24.1-23.4-56.5-34.7-99-34.7H812.5v780.8h227.3c42.6,0,75-11.2,99.1-34.3c4.3-4.1,8.3-8.6,11.8-13.3
			l39.7-53.3l9.2,65.8c2.9,21.1,12.1,35.1,47.1,35.1h251.4c35.4,0,48.5-13.3,48.5-49.1V682c0-20.5-6.1-36.1-18.6-48l-258.9-244
			V199.9h207.2v157.5H1546.6z M1103.4,779.1c0,62.4-37.7,98.3-103.6,98.3H882.9V202.1H1003c63.8,0,100.4,35.4,100.4,97.2V779.1z
			 M1476.2,676.6v202.8h-207.2V709.2h-94.8V390.8L1476.2,676.6z"/>
		<g>
			<g>
				<path class="st4" d="M1546.4,357.1l-0.4-156.5l0-9.8c0-3.2,0.1-6.5-0.2-9.7c-0.3-3.2-0.9-6.4-2.2-9.3c-0.1-0.4-0.3-0.8-0.4-1.1
					l-0.5-1.1c-0.4-0.7-0.7-1.5-1.1-2.1l-1.2-2c-0.4-0.7-0.9-1.3-1.4-1.9l-0.7-1c-0.2-0.3-0.5-0.6-0.8-0.9c-0.5-0.6-1.1-1.2-1.6-1.8
					c-1.2-1.1-2.3-2.2-3.7-3.1c-1.2-1-2.7-1.8-4-2.6c-1.4-0.7-2.8-1.5-4.4-1.9c-0.8-0.3-1.5-0.6-2.3-0.8l-2.3-0.6
					c-0.8-0.2-1.6-0.3-2.4-0.4c-0.8-0.1-1.6-0.3-2.4-0.3l-2.4-0.1l-2.4,0l-4.9,0l-78.4,0.1l-156.7,0.3l-19.6,0
					c-3.3,0-6.5,0.1-9.7,0.2l-4.8,0.4c-1.6,0.2-3.2,0.5-4.8,0.7c-0.8,0.1-1.6,0.3-2.3,0.5l-2.3,0.6c-0.8,0.2-1.5,0.5-2.3,0.7
					l-2.3,0.8c-0.7,0.3-1.4,0.6-2.2,1l-1.1,0.5l-0.5,0.2l-0.5,0.3c-1.3,0.8-2.7,1.6-3.9,2.6c-5,3.8-8.3,9.4-10.2,15.5
					c-1.9,6.1-2.5,12.6-3.4,19l-2.6,19.4l-5.2,38.8l-0.5,3.5l-2.1-2.8l-31.3-42.2l-7.8-10.5c-2.6-3.5-5.3-6.8-8.2-10
					c-5.9-6.3-12.5-12-19.6-16.8c-14.3-9.7-30.9-15.8-47.9-18.8c-8.5-1.5-17.2-2.5-25.8-2.8c-8.7-0.3-17.4-0.1-26.2-0.1l-210.1,0.3
					l2.1-2.1l1,780.8l-3-3l209.6-0.3c8.7,0,17.5,0.1,26.1-0.2c8.6-0.3,17.1-1.2,25.6-2.7c16.8-3,33.1-8.8,47.3-18.2
					c7.1-4.6,13.6-10.2,19.4-16.3c2.9-3.1,5.6-6.3,8.1-9.8l7.8-10.5l31.2-42.1l5.2-7l1.2,8.7l9.4,66.4c0.8,5.3,2.1,10.4,4.3,14.9
					c2.2,4.5,5.6,8,9.9,10.5c4.3,2.5,9.3,4,14.5,4.8c1.3,0.2,2.6,0.5,3.9,0.5l4,0.3c1.3,0.1,2.7,0.1,4,0.1c1.4,0,2.7,0.1,4.1,0.1
					l134.1-0.2l67-0.1l33.5,0l16.7,0c5.4-0.1,10.8-0.5,15.9-1.5c5.1-1,9.9-2.8,13.9-5.5c4-2.8,7-6.6,8.9-11.2c2-4.6,3.1-9.7,3.7-15
					c0.3-2.6,0.5-5.3,0.5-8c0-1.4,0-2.7,0.1-4.1l0-4.2l0-67l0-67l0-33.5l0-16.8l0-8.4c0-1.4,0-2.8,0-4.1c0-1.3-0.1-2.7-0.2-4
					c-0.7-10.6-3.6-21-9.4-29.6c-1.5-2.1-3-4.2-4.8-6.1c-0.8-1-1.8-1.9-2.7-2.8l-3-2.9l-12.2-11.5l-48.7-46.1l-194.7-184.3l-1-1
					l0-1.4l0.6-190.1l0-2.6l2.6,0l207.2,0.9l1.7,0l0,1.7l-0.9,157.5l-0.9-0.9L1546.4,357.1z M1546.9,357.7l-70.7,0.6l-0.9,0l0-0.9
					l-0.9-157.5l1.7,1.7l-207.2,0.9l2.6-2.6l0.6,190.1l-1-2.3l195.6,183.5l48.9,45.9l12.2,11.5l3.1,2.9c1.1,1.1,2.1,2.1,3.1,3.2
					c2,2.2,3.8,4.6,5.5,7c3.3,5,5.9,10.5,7.6,16.2c1.7,5.7,2.7,11.5,3.1,17.4c0.1,1.5,0.2,2.9,0.2,4.4c0,1.5,0.1,2.9,0,4.3l0,8.4
					l0,16.8l0,33.5l0,67l0,67l0,4.2c0,1.4,0,2.9-0.1,4.3c-0.1,2.9-0.3,5.8-0.6,8.7c-0.7,5.8-1.8,11.7-4.4,17.4
					c-1.3,2.8-2.9,5.6-4.8,8.1c-2,2.5-4.4,4.7-7,6.5c-5.2,3.6-11.2,5.7-17,6.8c-5.9,1.2-11.7,1.6-17.4,1.6l-16.8,0l-33.5,0l-67-0.1
					l-134.1-0.2c-1.4,0-2.8,0-4.3-0.1c-1.4-0.1-2.9,0-4.3-0.2l-4.3-0.4c-1.4-0.1-2.9-0.4-4.4-0.6c-5.8-1-11.7-2.6-17.1-5.8
					c-0.7-0.4-1.3-0.8-2-1.2l-1.9-1.4c-1.3-0.9-2.4-2.1-3.5-3.2c-0.6-0.5-1-1.2-1.5-1.8c-0.5-0.6-1-1.2-1.4-1.9l-1.2-2l-0.6-1
					c-0.2-0.3-0.3-0.7-0.5-1c-2.8-5.6-4.1-11.4-5-17.2l-9.2-66.4l6.4,1.6l-31.4,42l-7.8,10.5c-2.6,3.6-5.5,7.1-8.6,10.4
					c-6.3,6.5-13.1,12.3-20.7,17.3c-7.5,4.9-15.6,9-24,12.1c-8.4,3.2-17.1,5.4-25.9,7c-8.8,1.5-17.6,2.4-26.5,2.7
					c-8.9,0.2-17.6,0.1-26.3,0.1l-209.6-0.3l-3,0l0-3l1-780.8l0-2.1l2.1,0l210.1,0.3c8.8,0,17.5-0.1,26.3,0.2
					c8.8,0.3,17.6,1.3,26.3,2.9c8.7,1.6,17.3,4,25.5,7.2c8.3,3.2,16.2,7.3,23.5,12.3c7.4,5,14.1,10.8,20.1,17.3
					c3,3.3,5.8,6.7,8.4,10.3l7.8,10.6l31.1,42.3l-2.5,0.7l5.3-38.8l2.7-19.4c0.5-3.2,0.9-6.5,1.4-9.7l0.4-2.5l0.5-2.4
					c0.3-1.6,0.8-3.2,1.3-4.8c0.2-0.8,0.6-1.6,0.8-2.4c0.3-0.8,0.6-1.6,1-2.3l1.1-2.3l1.3-2.2c0.2-0.4,0.4-0.7,0.7-1.1l0.8-1
					c0.5-0.7,1-1.4,1.6-2l1.8-1.8c0.3-0.3,0.6-0.6,1-0.8l1-0.8c1.3-1.1,2.8-1.9,4.2-2.8l0.5-0.3l0.6-0.3l1.2-0.5
					c0.8-0.3,1.5-0.7,2.3-1l2.4-0.8c0.8-0.3,1.6-0.6,2.4-0.7l2.4-0.6c0.8-0.2,1.6-0.4,2.4-0.5c1.6-0.2,3.3-0.5,4.9-0.7l4.9-0.4
					c3.3-0.1,6.6-0.2,9.9-0.2l19.6,0l156.7,0.3l78.4,0.1l4.9,0l2.5,0l2.5,0.1c0.8,0,1.7,0.2,2.5,0.3c0.8,0.1,1.7,0.2,2.5,0.4
					l2.4,0.6c0.8,0.2,1.6,0.5,2.4,0.8c1.6,0.5,3.1,1.3,4.6,2c1.4,0.9,2.9,1.7,4.2,2.7c1.4,0.9,2.6,2.1,3.8,3.2
					c0.6,0.6,1.1,1.2,1.7,1.8c0.3,0.3,0.6,0.6,0.8,0.9l0.7,1c0.5,0.7,1,1.3,1.5,2l1.3,2.1c0.4,0.7,0.7,1.5,1.1,2.2l0.5,1.1
					c0.2,0.4,0.3,0.8,0.4,1.2c1.3,3.1,1.9,6.4,2.2,9.7c0.2,3.3,0.1,6.6,0.1,9.9l0,9.8L1546.9,357.7z"/>
				<path class="st4" d="M1103.8,779.1c0,5.8-0.4,11.7-1.1,17.5c-0.7,5.8-1.9,11.5-3.5,17.1c-1.6,5.6-3.7,11.1-6.4,16.3
					c-2.6,5.2-5.9,10.1-9.5,14.7c-7.4,9.1-16.9,16.4-27.3,21.5c-5.2,2.6-10.7,4.7-16.3,6.4c-5.6,1.6-11.3,2.9-17.1,3.8
					c-5.8,0.9-11.6,1.3-17.4,1.6c-5.8,0.2-11.6,0.1-17.5,0.2l-34.9,0.2l-69.8,0.4l-1.2,0l0-1.3l-0.8-168.8l-0.5-168.8l-1-337.6
					l0-3.5l3.5,0l94.9-0.4l23.7-0.1c8,0,16.2,0.4,24.2,1.6c8.1,1.2,16.1,3.1,23.8,6c3.9,1.4,7.6,3.2,11.3,5c3.6,2,7.2,4.1,10.5,6.6
					c6.8,4.8,12.7,10.9,17.7,17.5c4.9,6.7,8.8,14.2,11.6,21.9c2.8,7.8,4.6,15.8,5.7,23.9c0.2,1,0.3,2,0.4,3l0.3,3
					c0.2,2,0.3,4.1,0.4,6.1c0.1,2,0.1,4.1,0.1,6.1l0,5.9l-0.1,47.4l-0.2,47.4c-0.3,63.2-1.2,126.5-1.9,189.7l-0.5,47.4
					c-0.2,15.8-0.4,31.6-0.4,47.4C1104,715.8,1103.9,747.5,1103.8,779.1z M1103,779.1c-0.1-31.6-0.2-63.2-0.5-94.9
					c-0.1-15.8-0.3-31.6-0.4-47.4l-0.5-47.4c-0.7-63.2-1.5-126.5-1.9-189.7l-0.2-47.4l-0.1-47.4l0-5.9c0-1.9-0.1-3.8-0.1-5.8
					c-0.1-1.9-0.2-3.8-0.4-5.7l-0.3-2.9c-0.1-1-0.2-1.9-0.3-2.8c-1-7.6-2.7-15-5.3-22.1c-2.6-7.1-6.2-13.8-10.6-19.8
					c-4.5-6-9.7-11.4-15.8-15.8c-3-2.3-6.2-4.2-9.5-6c-3.4-1.7-6.8-3.3-10.3-4.6c-7.1-2.7-14.5-4.6-22.1-5.7
					c-7.6-1.1-15.3-1.6-23-1.6l-23.7-0.1l-94.9-0.4l3.5-3.5l-1,337.6L885,708.5l-0.8,168.8l-1.2-1.2l69.8,0.4l34.9,0.2
					c5.8,0,11.6,0.1,17.4,0c5.8-0.2,11.6-0.6,17.3-1.4c11.5-1.7,22.8-4.6,33.2-9.8c10.4-5.1,19.8-12.3,27.1-21.3
					c7.4-8.9,12.6-19.6,15.8-30.7c1.6-5.6,2.8-11.3,3.5-17C1102.6,790.7,1103,784.9,1103,779.1z"/>
				<path class="st4" d="M1476.6,676.5l1,203l0,1.3l-1.3,0l-207.2,0.9l-2.2,0l0-2.2l-0.6-170.3l2.8,2.8l-94.8,0.3l-3.1,0l0-3.1
					l-0.6-159.2l-0.3-79.6c-0.1-26.5-0.2-53.1-0.1-79.6l0-9.5l6.9,6.6c25.2,24,50.4,47.9,75.5,72l75.2,72.2l74.7,72.3l37.1,36.1
					l18.5,18.1L1476.6,676.5z M1475.9,676.8l-19.3-17.7l-19.2-17.7l-38.4-35.3l-76.3-70.7l-75.8-70.8
					c-25.2-23.6-50.3-47.3-75.4-70.9l6.9-3c0.1,26.5,0,53.1-0.1,79.6l-0.3,79.6l-0.6,159.2l-3.1-3.1l94.8,0.3l2.8,0l0,2.8
					l-0.6,170.3l-2.2-2.2l207.2,0.9l-1.3,1.3L1475.9,676.8z"/>
			</g>
		</g>
	</g>
	<g>
		<path class="st1" d="M660.1,701.9h69.9v179.3c0,35.8-13.3,49.1-49.1,49.1H420.4c-34.2,0-46.9-13.3-46.9-49.1V199
			c0-36.2,12.7-49.6,46.9-49.6h260.5c35.8,0,49.1,13.4,49.1,49.6v168.1h-69.9V202.2H443.8v675.3h216.2V701.9z"/>
		<path class="st4" d="M659.8,701.6l70.2-0.2l0.5,0l0,0.5l0.2,117l0.1,58.5c0,4.9,0,9.8-0.5,14.7c-0.5,4.9-1.3,9.8-2.9,14.5
			c-1.6,4.7-4.1,9.2-7.6,12.8c-3.5,3.6-7.9,6.3-12.6,8c-9.4,3.4-19.5,3.9-29.2,3.8l-29.3,0.1l-58.5,0.1l-117,0.2l-29.3,0.1l-14.6,0
			c-4.9,0-9.7,0.1-14.7-0.1c-4.9-0.2-9.9-0.8-14.8-2.1c-4.9-1.3-9.6-3.3-13.7-6.5c-4.1-3.2-7.2-7.4-9.3-12.1
			c-2.1-4.6-3.3-9.6-4-14.5c-0.7-4.9-1-9.9-1-14.8l0-14.6l-0.1-29.3l-0.1-58.5l-0.4-234.1l-0.3-234.1l-0.1-58.5l0-29.3l0-14.6
			c0-4.9-0.1-9.7,0.1-14.7c0.2-5,0.6-10,1.6-15c0.5-2.5,1.1-5,2-7.4c0.9-2.4,1.9-4.8,3.3-7.1c2.7-4.6,6.6-8.5,11.1-11.2
			c4.6-2.7,9.6-4.3,14.6-5.3c5-1,10-1.3,15-1.4c5-0.1,9.8,0,14.7,0l29.3,0l117-0.2l58.5-0.1l29.3,0l14.7,0c5,0,10,0.3,15,1.1
			c2.5,0.4,5,0.9,7.5,1.6c2.5,0.7,5,1.6,7.3,2.8c4.8,2.3,9.1,5.8,12.4,10.2c3.2,4.4,5.3,9.3,6.6,14.3c1.3,5,1.9,10.1,2.3,15.1
			c0.2,2.5,0.2,5,0.2,7.5l0,7.3l0,14.6l0,29.3l0.2,117l0,3.5l-3.5,0l-69.9,0.1l-3.7,0l0-3.7l-0.3-164.9l4,4l-216.2,0.2l4.1-4.1
			L447.9,371l-0.3,168.8l-1.1,337.6l-2.7-2.7l216.2,1.1l-1.6,1.6L659.8,701.6z M660.3,702.2l1.3,175.3l0,1.6l-1.6,0l-216.2,1.1
			l-2.6,0l0-2.7l-1.1-337.6L439.8,371l-0.1-168.8l0-4.1l4.1,0l216.2,0.2l4,0l0,4l-0.3,164.9l-3.7-3.7l69.9,0.1l-3.5,3.5l0.2-117
			l0-29.3l0-14.6l0-7.3c0-2.4-0.1-4.8-0.2-7.1c-0.3-4.7-0.8-9.4-2-13.8c-1.1-4.4-2.9-8.6-5.5-12.1c-2.6-3.5-6-6.3-10-8.3
			c-2-1-4.1-1.8-6.3-2.4c-2.2-0.6-4.5-1.1-6.8-1.5c-4.6-0.7-9.3-1-14.1-1.1l-14.6,0l-29.3,0l-58.5-0.1l-117-0.2l-29.3,0
			c-4.9,0-9.8,0-14.6,0c-4.8,0.1-9.5,0.4-14.1,1.3c-4.6,0.9-9,2.3-12.8,4.6c-3.8,2.3-7,5.5-9.3,9.3c-1.2,1.9-2.1,4-2.8,6.1
			c-0.8,2.2-1.4,4.4-1.8,6.7c-1,4.6-1.4,9.3-1.6,14.1c-0.2,4.7-0.1,9.7-0.1,14.5l0,14.6l0,29.3l-0.1,58.5l-0.3,234.1l-0.4,234.1
			l-0.1,58.5l-0.1,29.3l0,14.6c0,4.8,0.3,9.6,0.9,14.4c0.7,4.7,1.8,9.4,3.7,13.6c1.9,4.2,4.7,8.1,8.3,10.9c3.6,2.8,8,4.8,12.6,5.9
			c4.6,1.2,9.3,1.8,14.1,2c4.8,0.2,9.7,0.1,14.6,0.2l14.6,0l29.3,0.1l117,0.2l58.5,0.1l29.3,0.1c4.9,0,9.7,0,14.5-0.5
			c2.4-0.3,4.8-0.6,7.1-1.1c2.4-0.5,4.7-1.1,6.9-1.9c4.5-1.6,8.6-4.1,11.9-7.5c3.3-3.4,5.6-7.6,7.2-12.1c1.5-4.5,2.4-9.3,2.9-14.1
			c0.5-4.8,0.5-9.6,0.5-14.5l0.1-58.5l0.2-117l0.5,0.5L660.3,702.2z"/>
	</g>
</g>
</svg>
