<?xml version="1.0" encoding="iso-8859-1"?>
<!-- Generator: Adobe Illustrator 18.0.0, SVG Export Plug-In . SVG Version: 6.00 Build 0)  -->
<!DOCTYPE svg PUBLIC "-//W3C//DTD SVG 1.1//EN" "http://www.w3.org/Graphics/SVG/1.1/DTD/svg11.dtd">
<svg version="1.1" id="Layer_1" xmlns="http://www.w3.org/2000/svg" xmlns:xlink="http://www.w3.org/1999/xlink" x="0px" y="0px"
	 viewBox="0 0 1603 1178" style="enable-background:new 0 0 1603 1178;" xml:space="preserve">
<path style="fill-rule:evenodd;clip-rule:evenodd;fill:#353535;" d="M296.257,540.994L214.012,398.5l82.245-142.494h164.486
	L542.988,398.5l-82.245,142.495H296.257z"/>
<path style="fill-rule:evenodd;clip-rule:evenodd;fill:#353535;" d="M296.257,869.994L214.012,727.5l82.245-142.495h164.486
	L542.988,727.5l-82.245,142.494H296.257z"/>
<path style="fill-rule:evenodd;clip-rule:evenodd;fill:#353535;" d="M581.257,1037.994L499.012,895.5l82.245-142.494h164.486
	L827.988,895.5l-82.245,142.495H581.257z"/>
<path style="fill-rule:evenodd;clip-rule:evenodd;fill:#353535;" d="M581.257,378.994L499.012,236.5l82.245-142.494h164.486
	L827.988,236.5l-82.245,142.494H581.257z"/>
<path style="fill-rule:evenodd;clip-rule:evenodd;fill:#FFCD05;" d="M584.256,705.994L502.011,563.5l82.245-142.494h164.486
	L830.987,563.5l-82.245,142.494H584.256z"/>
<path style="fill-rule:evenodd;clip-rule:evenodd;fill:#FFCD05;" d="M875.285,540.978L793.04,398.483l82.245-142.494h164.486
	l82.245,142.494l-82.245,142.494H875.285z"/>
<path style="fill-rule:evenodd;clip-rule:evenodd;fill:#FFCD05;" d="M878.285,868.011l-82.245-142.495l82.245-142.494h164.486
	l82.245,142.494l-82.245,142.495H878.285z"/>
<path style="fill-rule:evenodd;clip-rule:evenodd;fill:#FFCD05;" d="M1157.313,702.994L1075.069,560.5l82.245-142.494H1321.8
	l82.245,142.494L1321.8,702.994H1157.313z"/>
<path style="fill-rule:evenodd;clip-rule:evenodd;fill:#FFCD05;" d="M1160.314,384.962l-82.245-142.495l82.245-142.494H1324.8
	l82.245,142.494L1324.8,384.962H1160.314z"/>
<path style="fill-rule:evenodd;clip-rule:evenodd;fill:#FFCD05;" d="M1161.314,1033.027l-82.245-142.494l82.245-142.494h164.486
	l82.245,142.494l-82.245,142.494H1161.314z"/>
<path style="fill-rule:evenodd;clip-rule:evenodd;fill:#353535;" d="M1016,256.5h24l82,142l-82,142l-66,1c0,0-6.5-15.5-7.5-20.5
	s1.5-27.5-3.5-26.5s-5,11-4,17s5,29,5,29l-7-2c0,0-6-5.333-8-14s0.333-9.333,3-7.667c2.667,1.667,6-6.333,2-10.667c-4-4.333-4-9-3-9
	s3.535-15.865,1.5-23.667c-3-11.5-12.833-16-11.5-17.667c1.333-1.667,6.333-1.333,7.333,0.667s-6-3.667-4.333-16.667s6-38.667,8-42
	c2-3.333,3.333-0.667,3.333-0.667s9.333-40,19.333-40S996,308.5,999.333,294.5C1002.667,280.5,1008,257.5,1016,256.5z"/>
<path style="fill:#343434;" d="M1319.667,385c0,0-2-10-5.5-12s-5-5.5-7-7s-16-2-19-10s-18-30-20-30.5s-6.5,16.5-11,16.5
	s-8.5-12.5-8-16s-5-1-8.5-6.5s-4-10.5-13.5-8.5s-8.5,0.5-7.5-2s0.5-10.5,6-8.5s16,9,18.5,12s18,8.5,21.5,7.5s-1.5-4.5-1.5-6
	s5.5-7.5,3-11.5s-10.5-12.5-8.5-12.5s8,9,10.5,6.5s12.5-12.5-3-21s-9-14-14.5-18s-14.5-6.5-22-15.5s-24.5-10.5-28.5-3.5
	s2,28.5-2.5,29.5s-9.5-0.5-9-8s-1-17,4.5-21s3.5-9,3.5-11s15,8,23.5,4.5s11-12.5,13.5-15.5s17.5-19.5,17.5-11s-15.5,6.5-8,17.5
	s20-5,26,6s10,20,12.5,22s3,12.5,7,13s11-2.5,7,4.5s11.5,25.5,21.5,35.5s13.5,13.5,20.5,13.5s20.5,6.5,14-14s-8-18.5-5-22.5
	s14-14.5,10-24.5s22-1.5,4-30s-34.5-23.5-41-30.5s-9.5-18-21.5-16s-21,0-35,8s-5-3.5-28.5,1s-28,9.5-26.5,16s1.5,15-4,10.5
	s1.5-12-6-16s-11.5,4.5-9,6.5s7,4.5,6,7.5s-0.5,3.5-7.5,1.5s-8.5,2.5-11-3s-7.5,2-8-1s7-14.5-11.5-11.5s0,18,3.5,19.5s28,1.5,21,8
	s-10.5,4-10.5,10s-1.5,27-8,18.5s-1.5-18,1-21s7-7.5-6-8.5s-9.5-19.5-16-18.5s-22.5,12.5-18,19.5s3.5,9.5-1.5,13s-4-6.5-10.5-14.5
	s-19.5-10-19.5-10l-15.5,27l82.5,141.5l29-0.5c0,0,9-14.5-5.5-22s3-9,0-11s-9.5-6-2.5-7.5s15.5-12,3.5-13.5s8-11.5,8-11.5
	l-24.5-23.5c0,0-3-8,11.5-4s0,6.5,2.5,11s12.5,2,21.5,3.5s15.5,4,11.5,13.5s-10,14.5-4.5,24s-5.5,23.5-9.5,24.5s0.5,17.5,0.5,17.5
	H1319.667z"/>
<path style="fill:#343434;" d="M1406.833,241.333c0,0-1,4.5-10.5,6.5s-9,8.5-9,8.5l8.5,5.5L1406.833,241.333z"/>
<path style="fill:#343434;" d="M1337.5,122l-12.5-21.5h-164.5l-13.5,22c0,0,20.5-9,24.5-2.5s5.5,8.5,8.5,5.5s2.5-10,10.5-12
	s21-4.5,23-2s30.5-1.5,34.5,4s17.5,20,21,14s-16-8-4.5-13.5S1312,106.5,1337.5,122z"/>
<path style="fill:#343434;" d="M1285.333,421.5c1.5,3,9.5-8,13-3s-8,15.5-17.5,18.5s-4.5-9-10-7.5s-31.5,13-31.5,21.5
	s-9.5,12.5-14,16.5s-16,16.5-18.5,29.5s-5,17.5-19.5,26s-26,5.5-22,36s-3.5,38.5-3.5,38.5s-14.5-21-14-30s-4-17.5-9-16
	s-5.5-4.5-14.5-4.5s-16,3.5-16,8.5s-23.5-10.5-23.5-10.5l72.5-127C1157.333,418,1283.833,418.5,1285.333,421.5z"/>
<path style="fill:#343434;" d="M1045.833,589.167l-3.5-5.5l-50,0.5c0,0-3.5,13.5-3.5,16s1.5,10,9,16.5s19,14.5,21,17
	s17,15,18.5,16.5s18.5,0,22,3s13.5,14,16.5,19.5s24.5,11.5,24.5,11.5l-26-47.5c0,0-32-5-33.5-18S1045.833,589.167,1045.833,589.167z
	"/>
<path style="fill:#343434;" d="M1182.917,748l0.583,22.5c0,0-9,12.5-14,13.5s-9.5,6-11.5,10.5s2.5,13.5,2.5,18.5s-11.5,6.5-10.5,11
	s10,13,15.5,18s24.5,29,27.5,34.5s3.5,9,2.5,12s45,12.5,48.5,27s-10.5,49-9.5,58s21,38,47,45.5s47.625,7.875,47.625,7.875
	l78.958-136.458L1326,747.917L1182.917,748z"/>
<g>
	<path style="fill:#353535;" d="M314.39,1015.049l14.014,4.443c-2.148,7.813-5.721,13.615-10.718,17.407
		c-4.997,3.792-11.336,5.688-19.019,5.688c-9.505,0-17.318-3.247-23.438-9.741c-6.12-6.494-9.18-15.373-9.18-26.636
		c0-11.914,3.076-21.167,9.229-27.759s14.241-9.888,24.268-9.888c8.756,0,15.869,2.588,21.338,7.764
		c3.255,3.06,5.696,7.455,7.324,13.184l-14.307,3.418c-0.847-3.711-2.612-6.641-5.298-8.789s-5.949-3.223-9.79-3.223
		c-5.306,0-9.612,1.904-12.915,5.713c-3.304,3.809-4.956,9.978-4.956,18.506c0,9.05,1.627,15.495,4.883,19.336
		c3.255,3.841,7.487,5.762,12.695,5.762c3.841,0,7.145-1.221,9.912-3.662C311.2,1024.131,313.186,1020.291,314.39,1015.049z"/>
	<path style="fill:#353535;" d="M340.709,1041.368v-13.721h13.721v13.721H340.709z"/>
	<path style="fill:#353535;" d="M368.541,969.786h26.416c5.957,0,10.498,0.456,13.623,1.367c4.199,1.237,7.796,3.435,10.791,6.592
		c2.995,3.158,5.273,7.023,6.836,11.597c1.563,4.574,2.344,10.213,2.344,16.919c0,5.892-0.732,10.97-2.197,15.234
		c-1.791,5.208-4.346,9.424-7.666,12.646c-2.507,2.441-5.892,4.346-10.156,5.713c-3.191,1.009-7.455,1.514-12.793,1.514h-27.197
		V969.786z M382.994,981.895v47.412h10.791c4.036,0,6.95-0.228,8.74-0.684c2.344-0.586,4.289-1.579,5.835-2.979
		c1.546-1.399,2.808-3.703,3.784-6.909c0.977-3.206,1.465-7.576,1.465-13.11c0-5.534-0.488-9.782-1.465-12.744
		c-0.977-2.962-2.344-5.273-4.102-6.934s-3.988-2.783-6.689-3.369c-2.019-0.456-5.974-0.684-11.865-0.684H382.994z"/>
	<path style="fill:#353535;" d="M440.709,1041.368v-13.721h13.721v13.721H440.709z"/>
	<path style="fill:#353535;" d="M464.927,1018.077l14.063-1.367c0.846,4.72,2.563,8.187,5.151,10.4
		c2.588,2.214,6.079,3.32,10.474,3.32c4.655,0,8.162-0.984,10.522-2.954c2.36-1.969,3.54-4.272,3.54-6.909
		c0-1.692-0.497-3.133-1.489-4.321c-0.993-1.188-2.727-2.222-5.2-3.101c-1.693-0.586-5.55-1.627-11.572-3.125
		c-7.748-1.92-13.184-4.28-16.309-7.08c-4.395-3.938-6.592-8.74-6.592-14.404c0-3.646,1.033-7.056,3.101-10.229
		c2.067-3.174,5.045-5.591,8.936-7.251c3.889-1.66,8.585-2.49,14.087-2.49c8.984,0,15.747,1.97,20.288,5.908
		c4.541,3.939,6.925,9.196,7.153,15.771l-14.453,0.635c-0.619-3.678-1.946-6.323-3.979-7.935c-2.035-1.611-5.086-2.417-9.155-2.417
		c-4.199,0-7.488,0.863-9.863,2.588c-1.531,1.107-2.295,2.588-2.295,4.443c0,1.693,0.716,3.142,2.148,4.346
		c1.823,1.53,6.25,3.125,13.281,4.785s12.231,3.377,15.601,5.151c3.369,1.774,6.006,4.199,7.91,7.275s2.856,6.877,2.856,11.401
		c0,4.102-1.14,7.943-3.418,11.523c-2.279,3.581-5.501,6.242-9.668,7.983c-4.167,1.741-9.359,2.612-15.576,2.612
		c-9.05,0-16-2.091-20.85-6.274C468.768,1032.18,465.871,1026.084,464.927,1018.077z"/>
	<path style="fill:#353535;" d="M271.773,1113.368l-10.254-42.949h8.877l6.475,29.502l7.852-29.502h10.313l7.529,30l6.592-30h8.73
		l-10.43,42.949h-9.199l-8.555-32.109l-8.525,32.109H271.773z"/>
	<path style="fill:#353535;" d="M328.404,1113.368l-10.254-42.949h8.877l6.475,29.502l7.852-29.502h10.313l7.529,30l6.592-30h8.73
		l-10.43,42.949h-9.199l-8.555-32.109l-8.525,32.109H328.404z"/>
	<path style="fill:#353535;" d="M385.035,1113.368l-10.254-42.949h8.877l6.475,29.502l7.852-29.502h10.313l7.529,30l6.592-30h8.73
		l-10.43,42.949h-9.199l-8.555-32.109l-8.525,32.109H385.035z"/>
	<path style="fill:#353535;" d="M432.203,1113.368v-8.232h8.232v8.232H432.203z"/>
	<path style="fill:#353535;" d="M476.412,1097.577l8.408,2.666c-1.289,4.688-3.433,8.169-6.431,10.444
		c-2.998,2.275-6.802,3.413-11.411,3.413c-5.703,0-10.391-1.948-14.063-5.845c-3.672-3.896-5.508-9.224-5.508-15.981
		c0-7.148,1.846-12.7,5.537-16.655s8.545-5.933,14.561-5.933c5.254,0,9.521,1.553,12.803,4.658c1.953,1.836,3.418,4.473,4.395,7.91
		l-8.584,2.051c-0.508-2.227-1.567-3.984-3.179-5.273s-3.57-1.934-5.874-1.934c-3.184,0-5.767,1.143-7.749,3.428
		c-1.983,2.285-2.974,5.987-2.974,11.104c0,5.43,0.976,9.297,2.93,11.602c1.953,2.305,4.492,3.457,7.617,3.457
		c2.304,0,4.287-0.732,5.947-2.197C474.498,1103.026,475.689,1100.722,476.412,1097.577z"/>
	<path style="fill:#353535;" d="M492.232,1070.418h15.85c3.574,0,6.299,0.274,8.174,0.82c2.52,0.743,4.677,2.061,6.475,3.955
		c1.797,1.895,3.164,4.214,4.102,6.958c0.938,2.744,1.406,6.128,1.406,10.151c0,3.535-0.439,6.582-1.318,9.141
		c-1.074,3.125-2.607,5.654-4.6,7.588c-1.504,1.465-3.535,2.607-6.094,3.428c-1.914,0.605-4.473,0.908-7.676,0.908h-16.318V1070.418
		z M500.904,1077.684v28.447h6.475c2.422,0,4.17-0.136,5.244-0.41c1.406-0.352,2.573-0.947,3.501-1.787
		c0.927-0.839,1.685-2.222,2.271-4.146c0.586-1.923,0.879-4.545,0.879-7.866c0-3.32-0.293-5.869-0.879-7.646
		c-0.586-1.777-1.406-3.164-2.461-4.16s-2.393-1.67-4.014-2.021c-1.211-0.273-3.584-0.41-7.119-0.41H500.904z"/>
	<path style="fill:#353535;" d="M533.394,1099.393l8.438-0.82c0.508,2.832,1.538,4.912,3.091,6.24
		c1.553,1.329,3.647,1.992,6.284,1.992c2.793,0,4.897-0.59,6.313-1.772c1.416-1.182,2.124-2.563,2.124-4.146
		c0-1.015-0.298-1.879-0.894-2.593c-0.596-0.713-1.636-1.333-3.12-1.86c-1.016-0.352-3.33-0.977-6.943-1.875
		c-4.649-1.152-7.91-2.568-9.785-4.248c-2.637-2.363-3.955-5.244-3.955-8.643c0-2.187,0.62-4.233,1.86-6.138
		c1.24-1.904,3.027-3.354,5.361-4.351c2.334-0.996,5.151-1.494,8.452-1.494c5.391,0,9.448,1.182,12.173,3.545
		c2.725,2.363,4.155,5.518,4.292,9.463l-8.672,0.381c-0.371-2.207-1.167-3.794-2.388-4.761c-1.221-0.967-3.052-1.45-5.493-1.45
		c-2.52,0-4.492,0.518-5.918,1.553c-0.918,0.664-1.377,1.553-1.377,2.666c0,1.016,0.429,1.885,1.289,2.607
		c1.094,0.918,3.75,1.875,7.969,2.871s7.339,2.026,9.36,3.091c2.021,1.065,3.604,2.52,4.746,4.365s1.714,4.126,1.714,6.841
		c0,2.461-0.684,4.766-2.051,6.914c-1.367,2.149-3.301,3.746-5.801,4.79c-2.5,1.044-5.615,1.567-9.346,1.567
		c-5.43,0-9.6-1.255-12.51-3.765C535.699,1107.855,533.96,1104.198,533.394,1099.393z"/>
	<path style="fill:#353535;" d="M575.552,1113.368v-8.232h8.232v8.232H575.552z"/>
	<path style="fill:#353535;" d="M590.523,1092.157c0-4.375,0.654-8.046,1.963-11.016c0.977-2.187,2.31-4.15,3.999-5.889
		c1.689-1.738,3.54-3.027,5.552-3.867c2.676-1.132,5.762-1.699,9.258-1.699c6.328,0,11.392,1.963,15.19,5.889
		c3.798,3.926,5.698,9.385,5.698,16.377c0,6.934-1.885,12.359-5.654,16.274c-3.77,3.916-8.809,5.874-15.117,5.874
		c-6.387,0-11.465-1.948-15.234-5.845S590.523,1098.993,590.523,1092.157z M599.458,1091.864c0,4.863,1.123,8.55,3.369,11.06
		c2.246,2.51,5.098,3.765,8.555,3.765s6.294-1.245,8.511-3.735c2.216-2.49,3.325-6.226,3.325-11.206
		c0-4.922-1.08-8.594-3.237-11.016c-2.158-2.421-5.024-3.633-8.599-3.633s-6.455,1.226-8.643,3.677
		C600.552,1083.226,599.458,1086.923,599.458,1091.864z"/>
	<path style="fill:#353535;" d="M638.98,1113.368v-42.949h18.252c4.589,0,7.925,0.386,10.005,1.157
		c2.08,0.772,3.745,2.144,4.995,4.116c1.25,1.973,1.875,4.229,1.875,6.768c0,3.223-0.948,5.884-2.842,7.983
		c-1.895,2.1-4.727,3.423-8.496,3.97c1.875,1.094,3.423,2.295,4.644,3.604c1.22,1.309,2.866,3.633,4.937,6.973l5.244,8.379h-10.371
		l-6.27-9.346c-2.227-3.34-3.75-5.444-4.57-6.313c-0.82-0.869-1.689-1.465-2.607-1.787c-0.918-0.322-2.373-0.483-4.365-0.483h-1.758
		v17.93H638.98z M647.652,1088.583h6.416c4.16,0,6.757-0.176,7.793-0.527c1.035-0.352,1.846-0.957,2.432-1.816
		c0.586-0.859,0.879-1.934,0.879-3.223c0-1.445-0.386-2.612-1.157-3.501c-0.772-0.889-1.86-1.45-3.267-1.685
		c-0.703-0.098-2.813-0.146-6.328-0.146h-6.768V1088.583z"/>
	<path style="fill:#353535;" d="M702.261,1097.577v-7.236h18.691v17.109c-1.816,1.758-4.449,3.306-7.896,4.644
		c-3.447,1.337-6.939,2.007-10.474,2.007c-4.493,0-8.408-0.942-11.748-2.827c-3.34-1.885-5.85-4.58-7.529-8.086
		c-1.68-3.505-2.52-7.319-2.52-11.44c0-4.472,0.938-8.447,2.813-11.924c1.875-3.476,4.619-6.142,8.232-7.998
		c2.754-1.425,6.182-2.139,10.283-2.139c5.332,0,9.497,1.118,12.495,3.354c2.998,2.237,4.926,5.328,5.786,9.272l-8.613,1.611
		c-0.605-2.109-1.743-3.774-3.413-4.995c-1.67-1.22-3.755-1.831-6.255-1.831c-3.79,0-6.802,1.201-9.038,3.604
		c-2.237,2.402-3.354,5.967-3.354,10.693c0,5.098,1.132,8.921,3.398,11.47c2.266,2.549,5.234,3.823,8.906,3.823
		c1.816,0,3.637-0.356,5.464-1.069c1.826-0.713,3.394-1.577,4.702-2.593v-5.449H702.261z"/>
	<path style="fill:#353535;" d="M728.892,1113.368v-8.232h8.232v8.232H728.892z"/>
	<path style="fill:#353535;" d="M745.357,1113.368v-42.949h8.672v42.949H745.357z"/>
	<path style="fill:#353535;" d="M762.32,1113.368v-42.949h18.252c4.589,0,7.925,0.386,10.005,1.157
		c2.08,0.772,3.745,2.144,4.995,4.116c1.25,1.973,1.875,4.229,1.875,6.768c0,3.223-0.948,5.884-2.842,7.983
		c-1.895,2.1-4.727,3.423-8.496,3.97c1.875,1.094,3.423,2.295,4.644,3.604c1.22,1.309,2.866,3.633,4.937,6.973l5.244,8.379h-10.371
		l-6.27-9.346c-2.227-3.34-3.75-5.444-4.57-6.313c-0.82-0.869-1.689-1.465-2.607-1.787c-0.918-0.322-2.373-0.483-4.365-0.483h-1.758
		v17.93H762.32z M770.992,1088.583h6.416c4.16,0,6.757-0.176,7.793-0.527c1.035-0.352,1.846-0.957,2.432-1.816
		c0.586-0.859,0.879-1.934,0.879-3.223c0-1.445-0.386-2.612-1.157-3.501c-0.772-0.889-1.86-1.45-3.267-1.685
		c-0.703-0.098-2.813-0.146-6.328-0.146h-6.768V1088.583z"/>
</g>
</svg>
